<?xml version="1.0" standalone="no"?>
<!DOCTYPE svg PUBLIC "-//W3C//DTD SVG 20010904//EN"
 "http://www.w3.org/TR/2001/REC-SVG-20010904/DTD/svg10.dtd">
<svg version="1.0" xmlns="http://www.w3.org/2000/svg"
 width="75.000000pt" height="75.000000pt" viewBox="0 0 75.000000 75.000000"
 preserveAspectRatio="xMidYMid meet">
<metadata>
Created by potrace 1.14, written by Peter Selinger 2001-2017
</metadata>
<g transform="translate(0.000000,75.000000) scale(0.100000,-0.100000)"
fill="#000000" stroke="none">
<path d="M240 733 c-129 -45 -197 -132 -216 -275 -4 -32 -2 -38 13 -38 18 0
23 12 27 67 0 11 5 19 10 15 5 -3 6 2 3 12 -4 9 -3 15 2 12 4 -3 16 9 26 28
20 37 93 90 151 111 157 56 343 -41 386 -199 7 -25 16 -46 20 -46 4 0 8 -5 8
-11 0 -5 -3 -8 -8 -5 -4 2 -8 -17 -8 -42 0 -26 -6 -63 -14 -82 -7 -19 -12 -41
-11 -49 1 -7 -2 -10 -8 -6 -6 3 -16 -5 -23 -19 -6 -14 -16 -26 -22 -26 -6 0
-2 -7 8 -15 11 -8 25 -15 30 -15 6 0 3 5 -6 11 -9 5 -15 16 -12 24 4 8 10 12
15 9 5 -3 7 -10 4 -15 -4 -5 -1 -9 4 -9 14 0 14 17 1 25 -5 3 -10 12 -10 18 1
7 12 -1 26 -18 15 -18 22 -23 18 -11 -6 15 -4 17 7 11 8 -5 7 -1 -3 12 -25 28
-22 40 4 17 12 -10 18 -14 15 -8 -4 7 0 17 8 24 7 6 12 17 9 25 -3 7 -1 16 5
20 6 3 11 13 11 21 0 8 -5 12 -10 9 -6 -4 -8 -11 -5 -16 3 -5 0 -6 -8 -3 -8 3
-18 -5 -25 -18 -8 -18 -11 -19 -11 -6 -1 10 14 28 33 40 34 22 34 23 31 88 -5
74 -27 146 -45 142 -6 -1 -9 2 -5 8 19 30 -77 128 -165 169 -68 31 -189 38
-260 14z m466 -374 c1 -9 -8 -21 -21 -27 -23 -10 -24 -7 -16 41 2 15 34 2 37
-14z m-21 -87 c-2 -29 -15 -44 -29 -33 -7 6 -17 7 -21 3 -5 -4 -5 -1 -1 6 4 7
11 10 16 7 5 -3 14 4 20 15 13 25 17 25 15 2z"/>
<path d="M677 363 c-10 -9 -9 -23 2 -23 5 0 11 7 15 15 5 15 -5 20 -17 8z"/>
<path d="M243 558 c-32 -42 -19 -114 24 -124 34 -9 56 16 56 62 0 53 -54 95
-80 62z"/>
<path d="M399 552 c-16 -14 -22 -29 -22 -56 0 -46 22 -71 56 -62 45 11 59 95
20 124 -22 16 -27 15 -54 -6z"/>
<path d="M154 432 c-23 -16 -23 -42 1 -69 20 -23 27 -26 42 -17 23 15 20 64
-4 81 -19 15 -24 15 -39 5z"/>
<path d="M500 420 c-23 -23 -25 -39 -7 -64 28 -39 84 13 66 62 -10 27 -33 28
-59 2z"/>
<path d="M40 344 c10 -36 23 -71 29 -77 7 -7 5 5 -4 25 -8 21 -16 56 -17 78
-1 25 -6 40 -14 40 -10 0 -8 -15 6 -66z"/>
<path d="M271 336 c-46 -62 -55 -95 -35 -125 19 -26 44 -27 74 -1 29 25 51 25
84 -1 29 -23 60 -19 76 10 14 28 5 55 -40 116 -37 50 -44 55 -80 55 -36 0 -43
-5 -79 -54z"/>
<path d="M550 150 c-13 -8 -12 -10 3 -10 9 0 17 5 17 10 0 12 -1 12 -20 0z"/>
<path d="M507 134 c3 -7 9 -14 14 -14 14 0 10 17 -5 23 -10 4 -13 1 -9 -9z"/>
<path d="M236 128 c3 -5 10 -6 15 -3 13 9 11 12 -6 12 -8 0 -12 -4 -9 -9z"/>
<path d="M270 130 c0 -5 5 -10 10 -10 6 0 10 5 10 10 0 6 -4 10 -10 10 -5 0
-10 -4 -10 -10z"/>
<path d="M306 128 c3 -5 10 -6 15 -3 13 9 11 12 -6 12 -8 0 -12 -4 -9 -9z"/>
<path d="M347 124 c4 -10 2 -15 -4 -11 -5 3 -10 0 -10 -7 0 -8 6 -12 14 -9 15
6 17 29 3 38 -6 4 -7 -1 -3 -11z"/>
<path d="M450 130 c0 -5 5 -10 11 -10 5 0 7 5 4 10 -3 6 -8 10 -11 10 -2 0 -4
-4 -4 -10z"/>
<path d="M575 129 c-4 -5 3 -8 14 -6 28 4 34 12 11 14 -11 1 -22 -2 -25 -8z"/>
<path d="M395 121 c-3 -6 4 -15 16 -21 17 -10 20 -9 14 1 -6 9 -3 11 9 6 10
-4 15 -3 11 4 -4 5 -16 7 -27 3 -14 -4 -18 -2 -14 5 4 6 5 11 2 11 -3 0 -7 -4
-11 -9z"/>
<path d="M485 110 c3 -5 8 -10 11 -10 2 0 4 5 4 10 0 6 -5 10 -11 10 -5 0 -7
-4 -4 -10z"/>
<path d="M545 110 c3 -5 8 -10 11 -10 2 0 4 5 4 10 0 6 -5 10 -11 10 -5 0 -7
-4 -4 -10z"/>
<path d="M130 89 c0 -5 5 -7 10 -4 6 3 10 8 10 11 0 2 -4 4 -10 4 -5 0 -10 -5
-10 -11z"/>
<path d="M456 91 c-3 -5 2 -15 12 -22 15 -12 16 -12 5 2 -7 9 -10 19 -6 22 3
4 4 7 0 7 -3 0 -8 -4 -11 -9z"/>
<path d="M306 68 c3 -4 9 -8 15 -8 5 0 9 4 9 8 0 5 -7 9 -15 9 -8 0 -12 -4 -9
-9z"/>
<path d="M370 72 c0 -5 7 -9 15 -9 8 0 12 4 9 9 -3 4 -9 8 -15 8 -5 0 -9 -4
-9 -8z"/>
<path d="M433 63 c0 -11 7 -20 14 -20 10 0 10 4 1 16 -7 9 -13 18 -15 20 -1 2
-1 -5 0 -16z"/>
<path d="M520 70 c-9 -6 -10 -10 -3 -10 6 0 15 5 18 10 8 12 4 12 -15 0z"/>
<path d="M229 53 c-13 -16 -12 -17 4 -4 9 7 17 15 17 17 0 8 -8 3 -21 -13z"/>
</g>
</svg>
